<svg height="512" viewBox="0 0 60 60" width="512" xmlns="http://www.w3.org/2000/svg"><g id="Page-1" fill="none" fill-rule="evenodd"><g id="045---Book-Plane-Seats" transform="translate(-1)"><g fill-rule="nonzero"><path id="Shape" d="m60 3.18v39.82h-58v-39.82c-.04521019-1.152631.84774936-2.12595691 2-2.18h54c1.1522506.05404309 2.0452102 1.027369 2 2.18z" fill="#00a9f8"/><path id="Shape" d="m58 1h-3c1.1522506.05404309 2.0452102 1.027369 2 2.18v39.82h3v-39.82c.0452102-1.152631-.8477494-2.12595691-2-2.18z" fill="#0078bf"/><path id="Shape" d="m60 43v3.82c.0452102 1.152631-.8477494 2.1259569-2 2.18h-54c-1.15225064-.0540431-2.04521019-1.027369-2-2.18v-3.82z" fill="#7e8d94"/><path id="Shape" d="m57 43v3.82c.0452102 1.152631-.8477494 2.1259569-2 2.18h3c1.1522506-.0540431 2.0452102-1.027369 2-2.18v-3.82z" fill="#545c60"/><path id="Shape" d="m42 55h-22l3-6h16z" fill="#545c60"/><path id="Shape" d="m48 57c-.0032948 1.1032019-.8967981 1.9967052-2 2h-30c-1.1011688-.0081672-1.9918328-.8988312-2-2 .0032948-1.1032019.8967981-1.9967052 2-2h30c1.1011688.0081672 1.9918328.8988312 2 2z" fill="#7e8d94"/><path id="Shape" d="m47.41 55.59c-.3704612-.3798589-.8794095-.5928231-1.41-.59l-3-.0000277c1.1011688.0081949 1.9918328.8988589 2 2.0000277-.0032948 1.1032019-.8967981 1.9967052-2 2h3c1.1032019-.0032948 1.9967052-.8967981 2-2 .0028231-.5305905-.2101411-1.0395388-.59-1.41z" fill="#545c60"/><path id="Shape" d="m56 24c0 4.32-4.07 8.06-10 9.86v-19.72c5.93 1.8 10 5.54 10 9.86z" fill="#ffda00"/><path id="Shape" d="m46 14.14v1.152c4.258 2.013 7 5.164 7 8.708s-2.742 6.7-7 8.708v1.152c5.93-1.8 10-5.54 10-9.86s-4.07-8.06-10-9.86z" fill="#ffbf00"/><path id="Shape" d="m46 14.14v19.72c-2.5966037.7690165-5.2919443 1.1531026-8 1.14h-36v-22h36c2.7080557-.0131026 5.4033963.3709835 8 1.14z" fill="#f4f4f4"/><path id="Shape" d="m38 13h-3c2.7080557-.0131026 5.4033963.3709835 8 1.14v19.72c-2.5966037.7690165-5.2919443 1.1531026-8 1.14h3c2.7080557.0131026 5.4033963-.3709835 8-1.14v-19.72c-2.5966037-.7690165-5.2919443-1.1531026-8-1.14z" fill="#ced7db"/><path id="Shape" d="m12 35-1.45 2.89c-.33773.6796577-1.03105603 1.1095973-1.79 1.11h-6.76v-4z" fill="#ced7db"/><path id="Shape" d="m12 13h-10v-4h6.76c.75894397.00040273 1.45227.43034232 1.79 1.11z" fill="#ced7db"/><rect id="Rectangle-path" fill="#f7422b" height="4" rx="1" width="8" x="16" y="5"/></g><path id="Shape" d="m19 13 1-4" stroke="#000" stroke-linecap="round" stroke-linejoin="round" stroke-width="2"/><rect id="Rectangle-path" fill="#f7422b" fill-rule="nonzero" height="4" rx="1" width="8" x="33" y="5"/><path id="Shape" d="m36 13 1-4" stroke="#000" stroke-linecap="round" stroke-linejoin="round" stroke-width="2"/><g fill="#000" fill-rule="nonzero"><path id="Shape" d="m58 0h-54c-1.70524172.05441563-3.04599736 1.47651044-3 3.182v43.636c-.04599736 1.7054896 1.29475828 3.1275844 3 3.182h17.382l-2 4h-3.382c-1.6568542 0-3 1.3431458-3 3s1.3431458 3 3 3h30c1.6568542 0 3-1.3431458 3-3s-1.3431458-3-3-3h-3.382l-2-4h17.382c1.7052417-.0544156 3.0459974-1.4765104 3-3.182v-43.636c.0459974-1.70548956-1.2947583-3.12758437-3-3.182zm-20 14c2.3625367-.0055814 4.7157133.2969698 7 .9v18.2c-2.2842867.6030302-4.6374633.9055814-7 .9l-35 .0000758v-20.0001516zm12 9c.5522847 0 1-.4477153 1-1v-4.43c2.492 1.74 4 3.982 4 6.43s-1.508 4.69-4 6.43v-4.43c0-.5522847-.4477153-1-1-1s-1 .4477153-1 1v5.611c-.6504638.3220892-1.3181372.6081873-2 .857v-16.936c.6818628.2488127 1.3495362.5349108 2 .857v5.611c0 .5522847.4477153 1 1 1zm-47 13h7.382l-.724 1.447c-.16817653.3397203-.51493301.5542129-.894.553l-5.764.0000051zm0-24v-2.00000512l5.764.00000512c.37906699-.00121288.72582347.2132797.894.553l.724 1.447zm44 45c0 .5522847-.4477153 1-1 1h-30c-.5522847 0-1-.4477153-1-1s.4477153-1 1-1h30c.5522847 0 1 .4477153 1 1zm-6.618-3h-18.764l2-4h14.764zm17.618-6h-54c-.59661794-.0616152-1.03807599-.5834187-1-1.182v-2.818h4c.55228475 0 1-.4477153 1-1s-.44771525-1-1-1h-4v-2h5.764c1.13720282.0037331 2.1776646-.6392359 2.683-1.658l1.171-2.342h25.382c4.2725648.0594752 8.4949704-.9257528 12.3-2.87.1540245-.0443776.2950323-.1253456.411-.236 3.85-2.194 6.289-5.365 6.289-8.894s-2.439-6.7-6.29-8.894c-.1159677-.1106544-.2569755-.1916224-.411-.236-3.8047295-1.9440885-8.0267724-2.9293119-12.299-2.87h-.719l.5-2h2.219c1.1045695 0 2-.8954305 2-2v-2c0-1.1045695-.8954305-2-2-2h-6c-1.1045695 0-2 .8954305-2 2v2c0 1.1045695.8954305 2 2 2h1.719l-.5 2h-14.938l.5-2h2.219c1.1045695 0 2-.8954305 2-2v-2c0-1.1045695-.8954305-2-2-2h-6c-1.1045695 0-2 .8954305-2 2v2c0 1.1045695.8954305 2 2 2h1.719l-.5 2h-5.6l-1.172-2.342c-.5053354-1.01876412-1.54579718-1.66173306-2.683-1.658h-5.764v-4.818c-.03807599-.59858134.40338206-1.12038476 1-1.182h54c.5966179.06161524 1.038076.58341866 1 1.182v38.818h-48c-.5522847 0-1 .4477153-1 1s.4477153 1 1 1h48v2.818c.038076.5985813-.4033821 1.1203848-1 1.182zm-24-40v-2h6v2zm-17 0v-2h6v2z"/><path id="Shape" d="m30 18h1c.5522847 0 1-.4477153 1-1s-.4477153-1-1-1h-1c-.5522847 0-1 .4477153-1 1s.4477153 1 1 1z"/><path id="Shape" d="m30 22h1c.5522847 0 1-.4477153 1-1s-.4477153-1-1-1h-1c-.5522847 0-1 .4477153-1 1s.4477153 1 1 1z"/><path id="Shape" d="m30 28h1c.5522847 0 1-.4477153 1-1s-.4477153-1-1-1h-1c-.5522847 0-1 .4477153-1 1s.4477153 1 1 1z"/><path id="Shape" d="m30 32h1c.5522847 0 1-.4477153 1-1s-.4477153-1-1-1h-1c-.5522847 0-1 .4477153-1 1s.4477153 1 1 1z"/><path id="Shape" d="m35 18h1c.5522847 0 1-.4477153 1-1s-.4477153-1-1-1h-1c-.5522847 0-1 .4477153-1 1s.4477153 1 1 1z"/><path id="Shape" d="m35 22h1c.5522847 0 1-.4477153 1-1s-.4477153-1-1-1h-1c-.5522847 0-1 .4477153-1 1s.4477153 1 1 1z"/><path id="Shape" d="m35 28h1c.5522847 0 1-.4477153 1-1s-.4477153-1-1-1h-1c-.5522847 0-1 .4477153-1 1s.4477153 1 1 1z"/><path id="Shape" d="m35 32h1c.5522847 0 1-.4477153 1-1s-.4477153-1-1-1h-1c-.5522847 0-1 .4477153-1 1s.4477153 1 1 1z"/><path id="Shape" d="m40 18h1c.5522847 0 1-.4477153 1-1s-.4477153-1-1-1h-1c-.5522847 0-1 .4477153-1 1s.4477153 1 1 1z"/><path id="Shape" d="m40 22h1c.5522847 0 1-.4477153 1-1s-.4477153-1-1-1h-1c-.5522847 0-1 .4477153-1 1s.4477153 1 1 1z"/><path id="Shape" d="m40 28h1c.5522847 0 1-.4477153 1-1s-.4477153-1-1-1h-1c-.5522847 0-1 .4477153-1 1s.4477153 1 1 1z"/><path id="Shape" d="m40 32h1c.5522847 0 1-.4477153 1-1s-.4477153-1-1-1h-1c-.5522847 0-1 .4477153-1 1s.4477153 1 1 1z"/><path id="Shape" d="m13 18h1c.5522847 0 1-.4477153 1-1s-.4477153-1-1-1h-1c-.5522847 0-1 .4477153-1 1s.4477153 1 1 1z"/><path id="Shape" d="m14 20h-1c-.5522847 0-1 .4477153-1 1s.4477153 1 1 1h1c.5522847 0 1-.4477153 1-1s-.4477153-1-1-1z"/><path id="Shape" d="m14 26h-1c-.5522847 0-1 .4477153-1 1s.4477153 1 1 1h1c.5522847 0 1-.4477153 1-1s-.4477153-1-1-1z"/><path id="Shape" d="m14 30h-1c-.5522847 0-1 .4477153-1 1s.4477153 1 1 1h1c.5522847 0 1-.4477153 1-1s-.4477153-1-1-1z"/><path id="Shape" d="m9 16h-1c-.55228475 0-1 .4477153-1 1s.44771525 1 1 1h1c.55228475 0 1-.4477153 1-1s-.44771525-1-1-1z"/><path id="Shape" d="m9 20h-1c-.55228475 0-1 .4477153-1 1s.44771525 1 1 1h1c.55228475 0 1-.4477153 1-1s-.44771525-1-1-1z"/><path id="Shape" d="m9 26h-1c-.55228475 0-1 .4477153-1 1s.44771525 1 1 1h1c.55228475 0 1-.4477153 1-1s-.44771525-1-1-1z"/><path id="Shape" d="m9 30h-1c-.55228475 0-1 .4477153-1 1s.44771525 1 1 1h1c.55228475 0 1-.4477153 1-1s-.44771525-1-1-1z"/><path id="Shape" d="m18 18h1c.5522847 0 1-.4477153 1-1s-.4477153-1-1-1h-1c-.5522847 0-1 .4477153-1 1s.4477153 1 1 1z"/><path id="Shape" d="m18 22h1c.5522847 0 1-.4477153 1-1s-.4477153-1-1-1h-1c-.5522847 0-1 .4477153-1 1s.4477153 1 1 1z"/><path id="Shape" d="m18 28h1c.5522847 0 1-.4477153 1-1s-.4477153-1-1-1h-1c-.5522847 0-1 .4477153-1 1s.4477153 1 1 1z"/><path id="Shape" d="m18 32h1c.5522847 0 1-.4477153 1-1s-.4477153-1-1-1h-1c-.5522847 0-1 .4477153-1 1s.4477153 1 1 1z"/><path id="Shape" d="m23 18h1c.5522847 0 1-.4477153 1-1s-.4477153-1-1-1h-1c-.5522847 0-1 .4477153-1 1s.4477153 1 1 1z"/><path id="Shape" d="m23 22h1c.5522847 0 1-.4477153 1-1s-.4477153-1-1-1h-1c-.5522847 0-1 .4477153-1 1s.4477153 1 1 1z"/><path id="Shape" d="m23 28h1c.5522847 0 1-.4477153 1-1s-.4477153-1-1-1h-1c-.5522847 0-1 .4477153-1 1s.4477153 1 1 1z"/><path id="Shape" d="m23 32h1c.5522847 0 1-.4477153 1-1s-.4477153-1-1-1h-1c-.5522847 0-1 .4477153-1 1s.4477153 1 1 1z"/></g></g></g></svg>