<?xml version="1.0" encoding="iso-8859-1"?>
<!-- Generator: Adobe Illustrator 19.0.0, SVG Export Plug-In . SVG Version: 6.00 Build 0)  -->
<svg version="1.1" id="Capa_1" xmlns="http://www.w3.org/2000/svg" xmlns:xlink="http://www.w3.org/1999/xlink" x="0px" y="0px"
	 viewBox="0 0 512 512" style="enable-background:new 0 0 512 512;" xml:space="preserve">
<polyline style="fill:#FFFFFF;" points="313.5,366 502,366 502,88.578 423.422,10 206,10 206,144 "/>
<rect x="256" y="72" style="fill:#FF5D5D;" width="192" height="96"/>
<rect x="10" y="146" style="fill:#99BBFF;" width="295.74" height="72"/>
<rect x="10" y="218" style="fill:#EDF2FA;" width="295.74" height="284"/>
<polygon style="fill:#C9F3FF;" points="79.75,300.472 10,370.333 10,502 79.75,502 "/>
<polygon style="fill:#A0E557;" points="157.75,379.268 79.75,300.472 79.75,502 157.75,502 "/>
<polygon style="fill:#FE8F8D;" points="234.581,304.564 156.581,379.268 156.581,502 234.581,502 "/>
<polygon style="fill:#FFC66C;" points="310.57,234.257 232.57,308.961 232.57,502 310.57,502 "/>
<polygon style="fill:#7D9BFF;" points="502,88.578 423.422,10 423.422,88.578 "/>
<path style="fill:#231F20;" d="M15,218h280.627"/>
<circle style="fill:#A0E557;" cx="157.98" cy="379.27" r="22.573"/>
<circle style="fill:#FFB954;" cx="79.75" cy="300.47" r="22.573"/>
<circle style="fill:#7D9BFF;" cx="235.82" cy="304.56" r="22.573"/>
<path d="M448,254H343.167c-5.523,0-10,4.478-10,10s4.477,10,10,10H448c5.523,0,10-4.478,10-10S453.523,254,448,254z"/>
<path d="M448,206H343.167c-5.523,0-10,4.478-10,10s4.477,10,10,10H448c5.523,0,10-4.478,10-10S453.523,206,448,206z"/>
<path d="M407,302h-63.833c-5.523,0-10,4.478-10,10s4.477,10,10,10H407c5.523,0,10-4.478,10-10S412.523,302,407,302z"/>
<path d="M448,302c-2.63,0-5.21,1.069-7.07,2.93c-1.86,1.86-2.93,4.44-2.93,7.07s1.07,5.21,2.93,7.069
	c1.86,1.86,4.44,2.931,7.07,2.931s5.21-1.07,7.07-2.931c1.86-1.859,2.93-4.439,2.93-7.069s-1.07-5.21-2.93-7.07S450.63,302,448,302z
	"/>
<path d="M509.071,81.507L430.492,2.929C428.617,1.054,426.074,0,423.421,0H206c-5.523,0-10,4.478-10,10v126H10
	c-5.523,0-10,4.478-10,10v356c0,5.522,4.477,10,10,10h295.737c5.523,0,10-4.478,10-10V376H502c5.523,0,10-4.478,10-10V88.578
	C512,85.926,510.946,83.383,509.071,81.507z M433.421,78.578V34.142l44.436,44.436H433.421z M295.737,156v52.005
	c-0.037,0-0.073-0.005-0.109-0.005H20v-52H295.737z M248.393,304.564c0,6.933-5.64,12.572-12.573,12.572s-12.573-5.64-12.573-12.572
	s5.64-12.573,12.573-12.573c2.642,0,5.093,0.823,7.119,2.221c0.016,0.017,0.03,0.035,0.047,0.052
	c0.492,0.492,1.024,0.922,1.583,1.29C246.923,297.84,248.393,301.032,248.393,304.564z M79.75,313.045
	c-6.933,0-12.573-5.641-12.573-12.573S72.817,287.9,79.75,287.9s12.573,5.64,12.573,12.572S86.683,313.045,79.75,313.045z
	 M89.75,331.468c1.571-0.508,3.089-1.134,4.546-1.864l34.746,34.745c-2.315,4.474-3.632,9.544-3.632,14.919
	c0,14.386,9.379,26.616,22.341,30.917V492h-58L89.75,331.468L89.75,331.468z M170.555,379.269c0,6.933-5.64,12.572-12.573,12.572
	s-12.573-5.64-12.573-12.572s5.64-12.573,12.573-12.573S170.555,372.336,170.555,379.269z M167.75,410.343
	c13.203-4.159,22.805-16.516,22.805-31.074c0-5.343-1.302-10.385-3.591-14.839l32.002-32.002c2.115,1.284,4.391,2.329,6.785,3.109
	V492h-58L167.75,410.343L167.75,410.343z M248.532,274.575c-3.908-1.663-8.204-2.584-12.711-2.584
	c-17.961,0-32.573,14.612-32.573,32.573c0,4.508,0.922,8.803,2.584,12.711l-33.01,33.011c-4.454-2.29-9.496-3.591-14.839-3.591
	c-5.311,0-10.325,1.286-14.76,3.551l-34.642-34.641c2.385-4.525,3.742-9.672,3.742-15.133c0-17.96-14.612-32.572-32.573-32.572
	s-32.573,14.612-32.573,32.572c0,4.663,0.992,9.095,2.764,13.11L20,343.523V228h275.108L248.532,274.575z M20,371.77
	c0.135-0.121,0.274-0.235,0.404-0.365l42.857-42.858c2.033,1.199,4.205,2.183,6.488,2.922V492H20V371.77z M245.75,492V335.583
	c13.119-4.209,22.643-16.521,22.643-31.019c0-6.165-1.722-11.936-4.71-16.856l32.054-32.053V492H245.75z M315.737,356V146
	c0-5.522-4.477-10-10-10H266V82h109.083c5.523,0,10-4.478,10-10s-4.477-10-10-10H256c-5.523,0-10,4.478-10,10v64h-30V20h197.421
	v68.578c0,5.522,4.477,10,10,10H438V158h-88.333c-5.523,0-10,4.478-10,10s4.477,10,10,10H448c5.523,0,10-4.478,10-10V98.578h34V356
	H315.737z"/>
<path d="M180.985,192h75.142c5.523,0,10-4.478,10-10s-4.477-10-10-10h-75.142c-5.523,0-10,4.478-10,10S175.462,192,180.985,192z"/>
<path d="M103.75,192c2.63,0,5.21-1.07,7.07-2.931c1.86-1.859,2.93-4.439,2.93-7.069s-1.07-5.21-2.93-7.07s-4.44-2.93-7.07-2.93
	s-5.21,1.069-7.07,2.93c-1.87,1.86-2.93,4.44-2.93,7.07s1.06,5.21,2.93,7.069C98.54,190.93,101.12,192,103.75,192z"/>
<path d="M67,192c2.63,0,5.21-1.07,7.07-2.931C75.93,187.21,77,184.63,77,182s-1.07-5.21-2.93-7.07S69.63,172,67,172
	s-5.21,1.069-7.07,2.93C58.07,176.79,57,179.37,57,182s1.07,5.21,2.93,7.069C61.79,190.93,64.37,192,67,192z"/>
<path d="M140.5,192c2.63,0,5.2-1.07,7.07-2.931c1.86-1.859,2.93-4.439,2.93-7.069s-1.07-5.21-2.93-7.07
	c-1.87-1.86-4.44-2.93-7.07-2.93c-2.64,0-5.21,1.069-7.08,2.93c-1.86,1.86-2.92,4.44-2.92,7.07s1.06,5.21,2.92,7.069
	C135.29,190.93,137.86,192,140.5,192z"/>
<g>
</g>
<g>
</g>
<g>
</g>
<g>
</g>
<g>
</g>
<g>
</g>
<g>
</g>
<g>
</g>
<g>
</g>
<g>
</g>
<g>
</g>
<g>
</g>
<g>
</g>
<g>
</g>
<g>
</g>
</svg>
